# MagicaVoxel @ Ephtracy

# group
o 

# material
mtllib 탄알.mtl
usemtl palette

# normals
vn -1 0 0
vn 1 0 0
vn 0 0 1
vn 0 0 -1
vn 0 -1 0
vn 0 1 0

# texcoords
vt 0.00195312 0.5
vt 0.00585938 0.5
vt 0.00976562 0.5
vt 0.0136719 0.5
vt 0.0175781 0.5
vt 0.0214844 0.5
vt 0.306641 0.5

# verts
v -1 3 0.3
v -1 3 -0.3
v -1 3.9 0.3
v -1 3.9 -0.3
v -1 4 0.3
v -1 4 -0.3
v -0.9 3 0.5
v -0.9 3 0.3
v -0.9 3 -0.3
v -0.9 3 -0.5
v -0.9 3.9 0.5
v -0.9 3.9 0.3
v -0.9 3.9 -0.3
v -0.9 3.9 -0.5
v -0.9 4 0.5
v -0.9 4 0.3
v -0.9 4 -0.3
v -0.9 4 -0.5
v -0.8 3 0.6
v -0.8 3 0.5
v -0.8 3 -0.5
v -0.8 3 -0.6
v -0.8 3.9 0.6
v -0.8 3.9 0.5
v -0.8 3.9 -0.5
v -0.8 3.9 -0.6
v -0.8 4 0.6
v -0.8 4 0.5
v -0.8 4 -0.5
v -0.8 4 -0.6
v -0.7 3 0.7
v -0.7 3 0.6
v -0.7 3 -0.6
v -0.7 3 -0.7
v -0.7 3.9 0.7
v -0.7 3.9 0.6
v -0.7 3.9 -0.6
v -0.7 3.9 -0.7
v -0.7 4 0.7
v -0.7 4 0.6
v -0.7 4 -0.6
v -0.7 4 -0.7
v -0.6 3 0.8
v -0.6 3 0.7
v -0.6 3 -0.7
v -0.6 3 -0.8
v -0.6 3.9 0.8
v -0.6 3.9 0.7
v -0.6 3.9 -0.7
v -0.6 3.9 -0.8
v -0.6 4 0.8
v -0.6 4 0.7
v -0.6 4 -0.7
v -0.6 4 -0.8
v -0.5 3 0.9
v -0.5 3 0.8
v -0.5 3 -0.8
v -0.5 3 -0.9
v -0.5 3.9 0.9
v -0.5 3.9 0.8
v -0.5 3.9 -0.8
v -0.5 3.9 -0.9
v -0.5 4 0.9
v -0.5 4 0.8
v -0.5 4 -0.8
v -0.5 4 -0.9
v -0.3 3 1
v -0.3 3 0.9
v -0.3 3 -0.9
v -0.3 3 -1
v -0.3 3.9 1
v -0.3 3.9 0.9
v -0.3 3.9 -0.9
v -0.3 3.9 -1
v -0.3 4 1
v -0.3 4 0.9
v -0.3 4 -0.9
v -0.3 4 -1
v 0.3 3 1
v 0.3 3 0.9
v 0.3 3 -0.9
v 0.3 3 -1
v 0.3 3.9 1
v 0.3 3.9 0.9
v 0.3 3.9 -0.9
v 0.3 3.9 -1
v 0.3 4 1
v 0.3 4 0.9
v 0.3 4 -0.9
v 0.3 4 -1
v 0.5 3 0.9
v 0.5 3 0.8
v 0.5 3 -0.8
v 0.5 3 -0.9
v 0.5 3.9 0.9
v 0.5 3.9 0.8
v 0.5 3.9 -0.8
v 0.5 3.9 -0.9
v 0.5 4 0.9
v 0.5 4 0.8
v 0.5 4 -0.8
v 0.5 4 -0.9
v 0.6 3 0.8
v 0.6 3 0.7
v 0.6 3 -0.7
v 0.6 3 -0.8
v 0.6 3.9 0.8
v 0.6 3.9 0.7
v 0.6 3.9 -0.7
v 0.6 3.9 -0.8
v 0.6 4 0.8
v 0.6 4 0.7
v 0.6 4 -0.7
v 0.6 4 -0.8
v 0.7 3 0.7
v 0.7 3 0.6
v 0.7 3 -0.6
v 0.7 3 -0.7
v 0.7 3.9 0.7
v 0.7 3.9 0.6
v 0.7 3.9 -0.6
v 0.7 3.9 -0.7
v 0.7 4 0.7
v 0.7 4 0.6
v 0.7 4 -0.6
v 0.7 4 -0.7
v 0.8 3 0.6
v 0.8 3 0.5
v 0.8 3 -0.5
v 0.8 3 -0.6
v 0.8 3.9 0.6
v 0.8 3.9 0.5
v 0.8 3.9 -0.5
v 0.8 3.9 -0.6
v 0.8 4 0.6
v 0.8 4 0.5
v 0.8 4 -0.5
v 0.8 4 -0.6
v 0.9 3 0.5
v 0.9 3 0.3
v 0.9 3 -0.3
v 0.9 3 -0.5
v 0.9 3.9 0.5
v 0.9 3.9 0.3
v 0.9 3.9 -0.3
v 0.9 3.9 -0.5
v 0.9 4 0.5
v 0.9 4 0.3
v 0.9 4 -0.3
v 0.9 4 -0.5
v 1 3 0.3
v 1 3 -0.3
v 1 3.9 0.3
v 1 3.9 -0.3
v 1 4 0.3
v 1 4 -0.3
v -0.3 3 1
v -0.3 3.9 1
v -0.3 4 1
v 0.3 3 1
v 0.3 3.9 1
v 0.3 4 1
v -0.5 3 0.9
v -0.5 3.9 0.9
v -0.5 4 0.9
v -0.3 3 0.9
v -0.3 3.9 0.9
v -0.3 4 0.9
v 0.3 3 0.9
v 0.3 3.9 0.9
v 0.3 4 0.9
v 0.5 3 0.9
v 0.5 3.9 0.9
v 0.5 4 0.9
v -0.6 3 0.8
v -0.6 3.9 0.8
v -0.6 4 0.8
v -0.5 3 0.8
v -0.5 3.9 0.8
v -0.5 4 0.8
v 0.5 3 0.8
v 0.5 3.9 0.8
v 0.5 4 0.8
v 0.6 3 0.8
v 0.6 3.9 0.8
v 0.6 4 0.8
v -0.7 3 0.7
v -0.7 3.9 0.7
v -0.7 4 0.7
v -0.6 3 0.7
v -0.6 3.9 0.7
v -0.6 4 0.7
v 0.6 3 0.7
v 0.6 3.9 0.7
v 0.6 4 0.7
v 0.7 3 0.7
v 0.7 3.9 0.7
v 0.7 4 0.7
v -0.8 3 0.6
v -0.8 3.9 0.6
v -0.8 4 0.6
v -0.7 3 0.6
v -0.7 3.9 0.6
v -0.7 4 0.6
v 0.7 3 0.6
v 0.7 3.9 0.6
v 0.7 4 0.6
v 0.8 3 0.6
v 0.8 3.9 0.6
v 0.8 4 0.6
v -0.9 3 0.5
v -0.9 3.9 0.5
v -0.9 4 0.5
v -0.8 3 0.5
v -0.8 3.9 0.5
v -0.8 4 0.5
v 0.8 3 0.5
v 0.8 3.9 0.5
v 0.8 4 0.5
v 0.9 3 0.5
v 0.9 3.9 0.5
v 0.9 4 0.5
v -1 3 0.3
v -1 3.9 0.3
v -1 4 0.3
v -0.9 3 0.3
v -0.9 3.9 0.3
v -0.9 4 0.3
v 0.9 3 0.3
v 0.9 3.9 0.3
v 0.9 4 0.3
v 1 3 0.3
v 1 3.9 0.3
v 1 4 0.3
v -1 3 -0.3
v -1 3.9 -0.3
v -1 4 -0.3
v -0.9 3 -0.3
v -0.9 3.9 -0.3
v -0.9 4 -0.3
v 0.9 3 -0.3
v 0.9 3.9 -0.3
v 0.9 4 -0.3
v 1 3 -0.3
v 1 3.9 -0.3
v 1 4 -0.3
v -0.9 3 -0.5
v -0.9 3.9 -0.5
v -0.9 4 -0.5
v -0.8 3 -0.5
v -0.8 3.9 -0.5
v -0.8 4 -0.5
v 0.8 3 -0.5
v 0.8 3.9 -0.5
v 0.8 4 -0.5
v 0.9 3 -0.5
v 0.9 3.9 -0.5
v 0.9 4 -0.5
v -0.8 3 -0.6
v -0.8 3.9 -0.6
v -0.8 4 -0.6
v -0.7 3 -0.6
v -0.7 3.9 -0.6
v -0.7 4 -0.6
v 0.7 3 -0.6
v 0.7 3.9 -0.6
v 0.7 4 -0.6
v 0.8 3 -0.6
v 0.8 3.9 -0.6
v 0.8 4 -0.6
v -0.7 3 -0.7
v -0.7 3.9 -0.7
v -0.7 4 -0.7
v -0.6 3 -0.7
v -0.6 3.9 -0.7
v -0.6 4 -0.7
v 0.6 3 -0.7
v 0.6 3.9 -0.7
v 0.6 4 -0.7
v 0.7 3 -0.7
v 0.7 3.9 -0.7
v 0.7 4 -0.7
v -0.6 3 -0.8
v -0.6 3.9 -0.8
v -0.6 4 -0.8
v -0.5 3 -0.8
v -0.5 3.9 -0.8
v -0.5 4 -0.8
v 0.5 3 -0.8
v 0.5 3.9 -0.8
v 0.5 4 -0.8
v 0.6 3 -0.8
v 0.6 3.9 -0.8
v 0.6 4 -0.8
v -0.5 3 -0.9
v -0.5 3.9 -0.9
v -0.5 4 -0.9
v -0.3 3 -0.9
v -0.3 3.9 -0.9
v -0.3 4 -0.9
v 0.3 3 -0.9
v 0.3 3.9 -0.9
v 0.3 4 -0.9
v 0.5 3 -0.9
v 0.5 3.9 -0.9
v 0.5 4 -0.9
v -0.3 3 -1
v -0.3 3.9 -1
v -0.3 4 -1
v 0.3 3 -1
v 0.3 3.9 -1
v 0.3 4 -1
v -0.3 3 1
v 0.3 3 1
v -0.5 3 0.9
v -0.3 3 0.9
v 0.3 3 0.9
v 0.5 3 0.9
v -0.6 3 0.8
v -0.5 3 0.8
v 0.5 3 0.8
v 0.6 3 0.8
v -0.7 3 0.7
v -0.6 3 0.7
v 0.6 3 0.7
v 0.7 3 0.7
v -0.8 3 0.6
v -0.7 3 0.6
v 0.7 3 0.6
v 0.8 3 0.6
v -0.9 3 0.5
v -0.8 3 0.5
v 0.8 3 0.5
v 0.9 3 0.5
v -1 3 0.3
v -0.9 3 0.3
v 0.9 3 0.3
v 1 3 0.3
v -1 3 -0.3
v -0.9 3 -0.3
v 0.9 3 -0.3
v 1 3 -0.3
v -0.9 3 -0.5
v -0.8 3 -0.5
v 0.8 3 -0.5
v 0.9 3 -0.5
v -0.8 3 -0.6
v -0.7 3 -0.6
v 0.7 3 -0.6
v 0.8 3 -0.6
v -0.7 3 -0.7
v -0.6 3 -0.7
v 0.6 3 -0.7
v 0.7 3 -0.7
v -0.6 3 -0.8
v -0.5 3 -0.8
v 0.5 3 -0.8
v 0.6 3 -0.8
v -0.5 3 -0.9
v -0.3 3 -0.9
v 0.3 3 -0.9
v 0.5 3 -0.9
v -0.3 3 -1
v 0.3 3 -1
v -0.3 4 1
v 0.3 4 1
v -0.5 4 0.9
v -0.3 4 0.9
v 0.3 4 0.9
v 0.5 4 0.9
v -0.6 4 0.8
v -0.5 4 0.8
v 0.5 4 0.8
v 0.6 4 0.8
v -0.7 4 0.7
v -0.6 4 0.7
v 0.6 4 0.7
v 0.7 4 0.7
v -0.8 4 0.6
v -0.7 4 0.6
v -0.5 4 0.6
v 0.5 4 0.6
v 0.7 4 0.6
v 0.8 4 0.6
v -0.9 4 0.5
v -0.8 4 0.5
v -0.6 4 0.5
v -0.5 4 0.5
v -0.4 4 0.5
v -0.2 4 0.5
v 0.5 4 0.5
v 0.6 4 0.5
v 0.8 4 0.5
v 0.9 4 0.5
v -0.4 4 0.4
v -0.3 4 0.4
v -0.2 4 0.4
v 0.3 4 0.4
v -1 4 0.3
v -0.9 4 0.3
v -0.4 4 0.3
v -0.3 4 0.3
v -0.2 4 0.3
v 0.1 4 0.3
v 0.3 4 0.3
v 0.4 4 0.3
v 0.9 4 0.3
v 1 4 0.3
v -0.3 4 0.2
v -0.2 4 0.2
v 0.1 4 0.2
v 0.3 4 0.2
v -0.3 4 -0.2
v -0.0999999 4 -0.2
v 0.2 4 -0.2
v 0.3 4 -0.2
v -1 4 -0.3
v -0.9 4 -0.3
v -0.4 4 -0.3
v -0.3 4 -0.3
v -0.0999999 4 -0.3
v 0.2 4 -0.3
v 0.3 4 -0.3
v 0.4 4 -0.3
v 0.9 4 -0.3
v 1 4 -0.3
v -0.3 4 -0.4
v 0.2 4 -0.4
v 0.3 4 -0.4
v 0.4 4 -0.4
v -0.9 4 -0.5
v -0.8 4 -0.5
v -0.6 4 -0.5
v -0.5 4 -0.5
v 0.2 4 -0.5
v 0.4 4 -0.5
v 0.5 4 -0.5
v 0.6 4 -0.5
v 0.8 4 -0.5
v 0.9 4 -0.5
v -0.8 4 -0.6
v -0.7 4 -0.6
v -0.5 4 -0.6
v 0.5 4 -0.6
v 0.7 4 -0.6
v 0.8 4 -0.6
v -0.7 4 -0.7
v -0.6 4 -0.7
v 0.6 4 -0.7
v 0.7 4 -0.7
v -0.6 4 -0.8
v -0.5 4 -0.8
v 0.5 4 -0.8
v 0.6 4 -0.8
v -0.5 4 -0.9
v -0.3 4 -0.9
v 0.3 4 -0.9
v 0.5 4 -0.9
v -0.3 4 -1
v 0.3 4 -1

# faces
f 3/4/1 2/4/1 1/4/1
f 4/4/1 2/4/1 3/4/1
f 5/6/1 4/6/1 3/6/1
f 6/6/1 4/6/1 5/6/1
f 11/4/1 8/4/1 7/4/1
f 12/4/1 8/4/1 11/4/1
f 13/4/1 10/4/1 9/4/1
f 14/4/1 10/4/1 13/4/1
f 15/6/1 12/6/1 11/6/1
f 16/6/1 12/6/1 15/6/1
f 17/6/1 14/6/1 13/6/1
f 18/6/1 14/6/1 17/6/1
f 23/4/1 20/4/1 19/4/1
f 24/4/1 20/4/1 23/4/1
f 25/4/1 22/4/1 21/4/1
f 26/4/1 22/4/1 25/4/1
f 27/6/1 24/6/1 23/6/1
f 28/6/1 24/6/1 27/6/1
f 29/6/1 26/6/1 25/6/1
f 30/6/1 26/6/1 29/6/1
f 35/4/1 32/4/1 31/4/1
f 36/4/1 32/4/1 35/4/1
f 37/4/1 34/4/1 33/4/1
f 38/4/1 34/4/1 37/4/1
f 39/5/1 36/5/1 35/5/1
f 40/5/1 36/5/1 39/5/1
f 41/5/1 38/5/1 37/5/1
f 42/5/1 38/5/1 41/5/1
f 47/4/1 44/4/1 43/4/1
f 48/4/1 44/4/1 47/4/1
f 49/4/1 46/4/1 45/4/1
f 50/4/1 46/4/1 49/4/1
f 51/6/1 48/6/1 47/6/1
f 52/6/1 48/6/1 51/6/1
f 53/6/1 50/6/1 49/6/1
f 54/6/1 50/6/1 53/6/1
f 59/4/1 56/4/1 55/4/1
f 60/4/1 56/4/1 59/4/1
f 61/4/1 58/4/1 57/4/1
f 62/4/1 58/4/1 61/4/1
f 63/6/1 60/6/1 59/6/1
f 64/6/1 60/6/1 63/6/1
f 65/6/1 62/6/1 61/6/1
f 66/6/1 62/6/1 65/6/1
f 71/4/1 68/4/1 67/4/1
f 72/4/1 68/4/1 71/4/1
f 73/4/1 70/4/1 69/4/1
f 74/4/1 70/4/1 73/4/1
f 75/6/1 72/6/1 71/6/1
f 76/6/1 72/6/1 75/6/1
f 77/6/1 74/6/1 73/6/1
f 78/6/1 74/6/1 77/6/1
f 79/4/2 80/4/2 83/4/2
f 83/4/2 80/4/2 84/4/2
f 81/4/2 82/4/2 85/4/2
f 85/4/2 82/4/2 86/4/2
f 83/6/2 84/6/2 87/6/2
f 87/6/2 84/6/2 88/6/2
f 85/6/2 86/6/2 89/6/2
f 89/6/2 86/6/2 90/6/2
f 91/4/2 92/4/2 95/4/2
f 95/4/2 92/4/2 96/4/2
f 93/4/2 94/4/2 97/4/2
f 97/4/2 94/4/2 98/4/2
f 95/6/2 96/6/2 99/6/2
f 99/6/2 96/6/2 100/6/2
f 97/6/2 98/6/2 101/6/2
f 101/6/2 98/6/2 102/6/2
f 103/4/2 104/4/2 107/4/2
f 107/4/2 104/4/2 108/4/2
f 105/4/2 106/4/2 109/4/2
f 109/4/2 106/4/2 110/4/2
f 107/6/2 108/6/2 111/6/2
f 111/6/2 108/6/2 112/6/2
f 109/6/2 110/6/2 113/6/2
f 113/6/2 110/6/2 114/6/2
f 115/4/2 116/4/2 119/4/2
f 119/4/2 116/4/2 120/4/2
f 117/4/2 118/4/2 121/4/2
f 121/4/2 118/4/2 122/4/2
f 119/5/2 120/5/2 123/5/2
f 123/5/2 120/5/2 124/5/2
f 121/5/2 122/5/2 125/5/2
f 125/5/2 122/5/2 126/5/2
f 127/4/2 128/4/2 131/4/2
f 131/4/2 128/4/2 132/4/2
f 129/4/2 130/4/2 133/4/2
f 133/4/2 130/4/2 134/4/2
f 131/6/2 132/6/2 135/6/2
f 135/6/2 132/6/2 136/6/2
f 133/6/2 134/6/2 137/6/2
f 137/6/2 134/6/2 138/6/2
f 139/4/2 140/4/2 143/4/2
f 143/4/2 140/4/2 144/4/2
f 141/4/2 142/4/2 145/4/2
f 145/4/2 142/4/2 146/4/2
f 143/6/2 144/6/2 147/6/2
f 147/6/2 144/6/2 148/6/2
f 145/6/2 146/6/2 149/6/2
f 149/6/2 146/6/2 150/6/2
f 151/4/2 152/4/2 153/4/2
f 153/4/2 152/4/2 154/4/2
f 153/6/2 154/6/2 155/6/2
f 155/6/2 154/6/2 156/6/2
f 160/4/3 158/4/3 157/4/3
f 161/6/3 159/6/3 158/6/3
f 161/4/3 158/4/3 160/4/3
f 162/6/3 159/6/3 161/6/3
f 166/4/3 164/4/3 163/4/3
f 167/6/3 165/6/3 164/6/3
f 167/4/3 164/4/3 166/4/3
f 168/6/3 165/6/3 167/6/3
f 172/4/3 170/4/3 169/4/3
f 173/6/3 171/6/3 170/6/3
f 173/4/3 170/4/3 172/4/3
f 174/6/3 171/6/3 173/6/3
f 178/4/3 176/4/3 175/4/3
f 179/6/3 177/6/3 176/6/3
f 179/4/3 176/4/3 178/4/3
f 180/6/3 177/6/3 179/6/3
f 184/4/3 182/4/3 181/4/3
f 185/6/3 183/6/3 182/6/3
f 185/4/3 182/4/3 184/4/3
f 186/6/3 183/6/3 185/6/3
f 190/4/3 188/4/3 187/4/3
f 191/5/3 189/5/3 188/5/3
f 191/4/3 188/4/3 190/4/3
f 192/5/3 189/5/3 191/5/3
f 196/4/3 194/4/3 193/4/3
f 197/5/3 195/5/3 194/5/3
f 197/4/3 194/4/3 196/4/3
f 198/5/3 195/5/3 197/5/3
f 202/4/3 200/4/3 199/4/3
f 203/6/3 201/6/3 200/6/3
f 203/4/3 200/4/3 202/4/3
f 204/6/3 201/6/3 203/6/3
f 208/4/3 206/4/3 205/4/3
f 209/6/3 207/6/3 206/6/3
f 209/4/3 206/4/3 208/4/3
f 210/6/3 207/6/3 209/6/3
f 214/4/3 212/4/3 211/4/3
f 215/6/3 213/6/3 212/6/3
f 215/4/3 212/4/3 214/4/3
f 216/6/3 213/6/3 215/6/3
f 220/4/3 218/4/3 217/4/3
f 221/6/3 219/6/3 218/6/3
f 221/4/3 218/4/3 220/4/3
f 222/6/3 219/6/3 221/6/3
f 226/4/3 224/4/3 223/4/3
f 227/6/3 225/6/3 224/6/3
f 227/4/3 224/4/3 226/4/3
f 228/6/3 225/6/3 227/6/3
f 232/4/3 230/4/3 229/4/3
f 233/6/3 231/6/3 230/6/3
f 233/4/3 230/4/3 232/4/3
f 234/6/3 231/6/3 233/6/3
f 235/4/4 236/4/4 238/4/4
f 236/6/4 237/6/4 239/6/4
f 238/4/4 236/4/4 239/4/4
f 239/6/4 237/6/4 240/6/4
f 241/4/4 242/4/4 244/4/4
f 242/6/4 243/6/4 245/6/4
f 244/4/4 242/4/4 245/4/4
f 245/6/4 243/6/4 246/6/4
f 247/4/4 248/4/4 250/4/4
f 248/6/4 249/6/4 251/6/4
f 250/4/4 248/4/4 251/4/4
f 251/6/4 249/6/4 252/6/4
f 253/4/4 254/4/4 256/4/4
f 254/6/4 255/6/4 257/6/4
f 256/4/4 254/4/4 257/4/4
f 257/6/4 255/6/4 258/6/4
f 259/4/4 260/4/4 262/4/4
f 260/6/4 261/6/4 263/6/4
f 262/4/4 260/4/4 263/4/4
f 263/6/4 261/6/4 264/6/4
f 265/4/4 266/4/4 268/4/4
f 266/6/4 267/6/4 269/6/4
f 268/4/4 266/4/4 269/4/4
f 269/6/4 267/6/4 270/6/4
f 271/4/4 272/4/4 274/4/4
f 272/5/4 273/5/4 275/5/4
f 274/4/4 272/4/4 275/4/4
f 275/5/4 273/5/4 276/5/4
f 277/4/4 278/4/4 280/4/4
f 278/5/4 279/5/4 281/5/4
f 280/4/4 278/4/4 281/4/4
f 281/5/4 279/5/4 282/5/4
f 283/4/4 284/4/4 286/4/4
f 284/6/4 285/6/4 287/6/4
f 286/4/4 284/4/4 287/4/4
f 287/6/4 285/6/4 288/6/4
f 289/4/4 290/4/4 292/4/4
f 290/6/4 291/6/4 293/6/4
f 292/4/4 290/4/4 293/4/4
f 293/6/4 291/6/4 294/6/4
f 295/4/4 296/4/4 298/4/4
f 296/6/4 297/6/4 299/6/4
f 298/4/4 296/4/4 299/4/4
f 299/6/4 297/6/4 300/6/4
f 301/4/4 302/4/4 304/4/4
f 302/6/4 303/6/4 305/6/4
f 304/4/4 302/4/4 305/4/4
f 305/6/4 303/6/4 306/6/4
f 307/4/4 308/4/4 310/4/4
f 308/6/4 309/6/4 311/6/4
f 310/4/4 308/4/4 311/4/4
f 311/6/4 309/6/4 312/6/4
f 316/4/5 314/4/5 313/4/5
f 317/4/5 314/4/5 316/4/5
f 320/4/5 316/4/5 315/4/5
f 320/4/5 318/4/5 317/4/5
f 320/4/5 317/4/5 316/4/5
f 321/4/5 318/4/5 320/4/5
f 324/4/5 320/4/5 319/4/5
f 324/4/5 322/4/5 321/4/5
f 324/4/5 321/4/5 320/4/5
f 325/4/5 322/4/5 324/4/5
f 328/4/5 324/4/5 323/4/5
f 328/4/5 326/4/5 325/4/5
f 328/4/5 325/4/5 324/4/5
f 329/4/5 326/4/5 328/4/5
f 332/4/5 328/4/5 327/4/5
f 332/4/5 330/4/5 329/4/5
f 332/4/5 329/4/5 328/4/5
f 333/4/5 330/4/5 332/4/5
f 336/4/5 332/4/5 331/4/5
f 336/4/5 334/4/5 333/4/5
f 336/4/5 333/4/5 332/4/5
f 337/4/5 334/4/5 336/4/5
f 339/4/5 336/4/5 335/4/5
f 339/4/5 338/4/5 337/4/5
f 339/4/5 337/4/5 336/4/5
f 340/4/5 338/4/5 339/4/5
f 341/4/5 338/4/5 340/4/5
f 342/4/5 338/4/5 341/4/5
f 343/4/5 341/4/5 340/4/5
f 344/4/5 341/4/5 343/4/5
f 345/4/5 341/4/5 344/4/5
f 346/4/5 341/4/5 345/4/5
f 347/4/5 345/4/5 344/4/5
f 348/4/5 345/4/5 347/4/5
f 349/4/5 345/4/5 348/4/5
f 350/4/5 345/4/5 349/4/5
f 351/4/5 349/4/5 348/4/5
f 352/4/5 349/4/5 351/4/5
f 353/4/5 349/4/5 352/4/5
f 354/4/5 349/4/5 353/4/5
f 355/4/5 353/4/5 352/4/5
f 356/4/5 353/4/5 355/4/5
f 357/4/5 353/4/5 356/4/5
f 358/4/5 353/4/5 357/4/5
f 359/4/5 357/4/5 356/4/5
f 360/4/5 357/4/5 359/4/5
f 361/4/5 357/4/5 360/4/5
f 362/4/5 357/4/5 361/4/5
f 363/4/5 361/4/5 360/4/5
f 364/4/5 361/4/5 363/4/5
f 365/6/6 366/6/6 368/6/6
f 368/6/6 366/6/6 369/6/6
f 367/6/6 368/6/6 372/6/6
f 369/6/6 370/6/6 372/6/6
f 368/6/6 369/6/6 372/6/6
f 372/6/6 370/6/6 373/6/6
f 371/6/6 372/6/6 376/6/6
f 373/6/6 374/6/6 376/6/6
f 372/6/6 373/6/6 376/6/6
f 376/6/6 374/6/6 377/6/6
f 375/5/6 376/5/6 380/5/6
f 377/5/6 378/5/6 380/5/6
f 376/5/6 377/5/6 380/5/6
f 380/5/6 378/5/6 381/5/6
f 381/5/6 378/5/6 382/5/6
f 382/5/6 378/5/6 383/5/6
f 379/6/6 380/6/6 386/6/6
f 380/5/6 381/5/6 387/5/6
f 381/4/6 382/4/6 388/4/6
f 387/5/6 381/5/6 388/5/6
f 388/4/6 382/4/6 389/4/6
f 389/4/6 382/4/6 390/4/6
f 382/5/6 383/5/6 391/5/6
f 390/4/6 382/4/6 391/4/6
f 391/5/6 383/5/6 392/5/6
f 383/6/6 384/6/6 393/6/6
f 389/4/6 390/4/6 395/4/6
f 388/3/6 389/3/6 395/3/6
f 395/4/6 390/4/6 396/4/6
f 390/3/6 391/3/6 397/3/6
f 396/4/6 390/4/6 397/4/6
f 397/3/6 391/3/6 398/3/6
f 385/6/6 386/6/6 400/6/6
f 395/3/6 396/3/6 401/3/6
f 388/3/6 395/3/6 401/3/6
f 396/2/6 397/2/6 402/2/6
f 401/3/6 396/3/6 402/3/6
f 397/2/6 398/2/6 402/2/6
f 402/2/6 398/2/6 403/2/6
f 403/2/6 398/2/6 404/2/6
f 398/3/6 391/3/6 405/3/6
f 404/2/6 398/2/6 405/2/6
f 405/3/6 391/3/6 406/3/6
f 393/6/6 394/6/6 407/6/6
f 401/2/6 402/2/6 409/2/6
f 402/2/6 403/2/6 409/2/6
f 403/1/6 404/1/6 410/1/6
f 409/2/6 403/2/6 410/2/6
f 404/2/6 405/2/6 411/2/6
f 410/1/6 404/1/6 411/1/6
f 405/2/6 406/2/6 411/2/6
f 411/2/6 406/2/6 412/2/6
f 401/2/6 409/2/6 413/2/6
f 409/1/6 410/1/6 413/1/6
f 411/1/6 412/1/6 413/1/6
f 410/1/6 411/1/6 413/1/6
f 413/1/6 412/1/6 414/1/6
f 414/1/6 412/1/6 415/1/6
f 412/2/6 406/2/6 416/2/6
f 415/1/6 412/1/6 416/1/6
f 399/6/6 400/6/6 417/6/6
f 400/6/6 386/6/6 418/6/6
f 417/6/6 400/6/6 418/6/6
f 388/3/6 401/3/6 419/3/6
f 401/2/6 413/2/6 419/2/6
f 413/2/6 414/2/6 419/2/6
f 419/2/6 414/2/6 420/2/6
f 414/1/6 415/1/6 421/1/6
f 420/2/6 414/2/6 421/2/6
f 415/2/6 416/2/6 422/2/6
f 421/1/6 415/1/6 422/1/6
f 416/2/6 406/2/6 423/2/6
f 422/2/6 416/2/6 423/2/6
f 406/3/6 391/3/6 424/3/6
f 423/2/6 406/2/6 424/2/6
f 407/6/6 408/6/6 425/6/6
f 393/6/6 407/6/6 425/6/6
f 425/6/6 408/6/6 426/6/6
f 419/3/6 420/3/6 427/3/6
f 422/2/6 423/2/6 427/2/6
f 421/2/6 422/2/6 427/2/6
f 420/2/6 421/2/6 427/2/6
f 427/2/6 423/2/6 428/2/6
f 423/3/6 424/3/6 429/3/6
f 428/2/6 423/2/6 429/2/6
f 424/3/6 391/3/6 430/3/6
f 429/3/6 424/3/6 430/3/6
f 418/6/6 386/6/6 431/6/6
f 386/6/6 380/6/6 432/6/6
f 431/6/6 386/6/6 432/6/6
f 380/5/6 387/5/6 433/5/6
f 387/4/6 388/4/6 433/4/6
f 388/3/6 419/3/6 434/3/6
f 433/4/6 388/4/6 434/4/6
f 427/3/6 428/3/6 434/3/6
f 419/3/6 427/3/6 434/3/6
f 428/4/6 429/4/6 435/4/6
f 434/3/6 428/3/6 435/3/6
f 429/4/6 430/4/6 435/4/6
f 430/3/6 391/3/6 436/3/6
f 435/4/6 430/4/6 436/4/6
f 391/4/6 392/4/6 437/4/6
f 436/3/6 391/3/6 437/3/6
f 392/5/6 383/5/6 438/5/6
f 437/4/6 392/4/6 438/4/6
f 393/6/6 425/6/6 439/6/6
f 383/6/6 393/6/6 439/6/6
f 439/6/6 425/6/6 440/6/6
f 432/6/6 380/6/6 441/6/6
f 380/5/6 433/5/6 442/5/6
f 441/6/6 380/6/6 442/6/6
f 433/5/6 434/5/6 442/5/6
f 436/4/6 437/4/6 443/4/6
f 442/5/6 434/5/6 443/5/6
f 435/4/6 436/4/6 443/4/6
f 434/4/6 435/4/6 443/4/6
f 437/5/6 438/5/6 444/5/6
f 443/4/6 437/4/6 444/4/6
f 438/5/6 383/5/6 445/5/6
f 444/5/6 438/5/6 445/5/6
f 383/6/6 439/6/6 445/6/6
f 445/6/6 439/6/6 446/6/6
f 443/5/6 444/5/6 447/5/6
f 444/5/6 445/5/6 447/5/6
f 442/5/6 443/5/6 447/5/6
f 447/5/6 445/5/6 448/5/6
f 448/5/6 445/5/6 449/5/6
f 449/5/6 445/5/6 450/5/6
f 448/6/6 449/6/6 451/6/6
f 451/6/6 449/6/6 452/6/6
f 452/6/6 449/6/6 453/6/6
f 453/6/6 449/6/6 454/6/6
f 452/6/6 453/6/6 455/6/6
f 455/6/6 453/6/6 456/6/6
f 456/6/6 453/6/6 457/6/6
f 457/6/6 453/6/6 458/6/6
f 456/6/6 457/6/6 459/6/6
f 459/6/6 457/6/6 460/6/6
